<svg xmlns="http://www.w3.org/2000/svg" width="1200" height="240" viewBox="0 0 1200 240" role="img" aria-label="Mohamad Salman, University of Toronto, Computer Engineering">
<defs>
<linearGradient id="bg" x1="0" y1="0" x2="1" y2="1">
<stop offset="0%" stop-color="#05070F"/>
<stop offset="45%" stop-color="#101033"/>
<stop offset="100%" stop-color="#2B1A5F"/>
</linearGradient>
<linearGradient id="glow" x1="0" y1="0" x2="1" y2="0">
<stop offset="0%" stop-color="#22D3EE" stop-opacity="0"/>
<stop offset="50%" stop-color="#818CF8" stop-opacity="0.55"/>
<stop offset="100%" stop-color="#C084FC" stop-opacity="0"/>
</linearGradient>
<linearGradient id="rule" x1="0" y1="0" x2="1" y2="0">
<stop offset="0%" stop-color="#22D3EE"/>
<stop offset="55%" stop-color="#818CF8"/>
<stop offset="100%" stop-color="#C084FC"/>
</linearGradient>
<linearGradient id="cell" x1="0" y1="0" x2="1" y2="1">
<stop offset="0%" stop-color="#22D3EE"/>
<stop offset="100%" stop-color="#C084FC"/>
</linearGradient>
<radialGradient id="vig" cx="0.22" cy="0.5" r="0.85">
<stop offset="0%" stop-color="#4C1D95" stop-opacity="0.38"/>
<stop offset="100%" stop-color="#000000" stop-opacity="0"/>
</radialGradient>
<pattern id="dots" width="26" height="26" patternUnits="userSpaceOnUse">
<circle cx="1.5" cy="1.5" r="1.1" fill="#FFFFFF" fill-opacity="0.055"/>
</pattern>
</defs>
<rect width="1200" height="240" rx="14" fill="url(#bg)"/>
<rect width="1200" height="240" rx="14" fill="url(#dots)"/>
<rect width="1200" height="240" rx="14" fill="url(#vig)"/>
<rect x="0" y="237" width="1200" height="3" fill="url(#glow)"/>
<rect x="865.0" y="56.0" width="20" height="20" rx="4" fill="url(#cell)" fill-opacity="0.340"/>
<rect x="892.0" y="56.0" width="20" height="20" rx="4" fill="url(#cell)" fill-opacity="0.623"/>
<rect x="919.0" y="56.0" width="20" height="20" rx="4" fill="url(#cell)" fill-opacity="0.844"/>
<rect x="946.0" y="56.0" width="20" height="20" rx="4" fill="url(#cell)" fill-opacity="0.853"/>
<rect x="973.0" y="56.0" width="20" height="20" rx="4" fill="url(#cell)" fill-opacity="0.642"/>
<rect x="1000.0" y="56.0" width="20" height="20" rx="4" fill="url(#cell)" fill-opacity="0.357"/>
<rect x="1027.0" y="56.0" width="20" height="20" rx="4" fill="url(#cell)" fill-opacity="0.163"/>
<rect x="1054.0" y="56.0" width="20" height="20" rx="4" fill="url(#cell)" fill-opacity="0.103"/>
<rect x="1081.0" y="56.0" width="20" height="20" rx="4" fill="url(#cell)" fill-opacity="0.101"/>
<rect x="1108.0" y="56.0" width="20" height="20" rx="4" fill="url(#cell)" fill-opacity="0.141"/>
<rect x="865.0" y="83.0" width="20" height="20" rx="4" fill="url(#cell)" fill-opacity="0.558"/>
<rect x="892.0" y="83.0" width="20" height="20" rx="4" fill="url(#cell)" fill-opacity="0.809"/>
<rect x="919.0" y="83.0" width="20" height="20" rx="4" fill="url(#cell)" fill-opacity="0.873"/>
<rect x="946.0" y="83.0" width="20" height="20" rx="4" fill="url(#cell)" fill-opacity="0.703"/>
<rect x="973.0" y="83.0" width="20" height="20" rx="4" fill="url(#cell)" fill-opacity="0.418"/>
<rect x="1000.0" y="83.0" width="20" height="20" rx="4" fill="url(#cell)" fill-opacity="0.194"/>
<rect x="1027.0" y="83.0" width="20" height="20" rx="4" fill="url(#cell)" fill-opacity="0.107"/>
<rect x="1054.0" y="83.0" width="20" height="20" rx="4" fill="url(#cell)" fill-opacity="0.100"/>
<rect x="1081.0" y="83.0" width="20" height="20" rx="4" fill="url(#cell)" fill-opacity="0.123"/>
<rect x="1108.0" y="83.0" width="20" height="20" rx="4" fill="url(#cell)" fill-opacity="0.257"/>
<rect x="865.0" y="110.0" width="20" height="20" rx="4" fill="url(#cell)" fill-opacity="0.764"/>
<rect x="892.0" y="110.0" width="20" height="20" rx="4" fill="url(#cell)" fill-opacity="0.880"/>
<rect x="919.0" y="110.0" width="20" height="20" rx="4" fill="url(#cell)" fill-opacity="0.757"/>
<rect x="946.0" y="110.0" width="20" height="20" rx="4" fill="url(#cell)" fill-opacity="0.483"/>
<rect x="973.0" y="110.0" width="20" height="20" rx="4" fill="url(#cell)" fill-opacity="0.233"/>
<rect x="1000.0" y="110.0" width="20" height="20" rx="4" fill="url(#cell)" fill-opacity="0.116"/>
<rect x="1027.0" y="110.0" width="20" height="20" rx="4" fill="url(#cell)" fill-opacity="0.100"/>
<rect x="1054.0" y="110.0" width="20" height="20" rx="4" fill="url(#cell)" fill-opacity="0.112"/>
<rect x="1081.0" y="110.0" width="20" height="20" rx="4" fill="url(#cell)" fill-opacity="0.214"/>
<rect x="1108.0" y="110.0" width="20" height="20" rx="4" fill="url(#cell)" fill-opacity="0.453"/>
<rect x="865.0" y="137.0" width="20" height="20" rx="4" fill="url(#cell)" fill-opacity="0.874"/>
<rect x="892.0" y="137.0" width="20" height="20" rx="4" fill="url(#cell)" fill-opacity="0.804"/>
<rect x="919.0" y="137.0" width="20" height="20" rx="4" fill="url(#cell)" fill-opacity="0.549"/>
<rect x="946.0" y="137.0" width="20" height="20" rx="4" fill="url(#cell)" fill-opacity="0.279"/>
<rect x="973.0" y="137.0" width="20" height="20" rx="4" fill="url(#cell)" fill-opacity="0.131"/>
<rect x="1000.0" y="137.0" width="20" height="20" rx="4" fill="url(#cell)" fill-opacity="0.100"/>
<rect x="1027.0" y="137.0" width="20" height="20" rx="4" fill="url(#cell)" fill-opacity="0.105"/>
<rect x="1054.0" y="137.0" width="20" height="20" rx="4" fill="url(#cell)" fill-opacity="0.178"/>
<rect x="1081.0" y="137.0" width="20" height="20" rx="4" fill="url(#cell)" fill-opacity="0.390"/>
<rect x="1108.0" y="137.0" width="20" height="20" rx="4" fill="url(#cell)" fill-opacity="0.675"/>
<rect x="865.0" y="164.0" width="20" height="20" rx="4" fill="url(#cell)" fill-opacity="0.840"/>
<rect x="892.0" y="164.0" width="20" height="20" rx="4" fill="url(#cell)" fill-opacity="0.615"/>
<rect x="919.0" y="164.0" width="20" height="20" rx="4" fill="url(#cell)" fill-opacity="0.333"/>
<rect x="946.0" y="164.0" width="20" height="20" rx="4" fill="url(#cell)" fill-opacity="0.151"/>
<rect x="973.0" y="164.0" width="20" height="20" rx="4" fill="url(#cell)" fill-opacity="0.101"/>
<rect x="1000.0" y="164.0" width="20" height="20" rx="4" fill="url(#cell)" fill-opacity="0.101"/>
<rect x="1027.0" y="164.0" width="20" height="20" rx="4" fill="url(#cell)" fill-opacity="0.151"/>
<rect x="1054.0" y="164.0" width="20" height="20" rx="4" fill="url(#cell)" fill-opacity="0.331"/>
<rect x="1081.0" y="164.0" width="20" height="20" rx="4" fill="url(#cell)" fill-opacity="0.612"/>
<rect x="1108.0" y="164.0" width="20" height="20" rx="4" fill="url(#cell)" fill-opacity="0.839"/>
<text x="72" y="112" font-family="ui-sans-serif,system-ui,-apple-system,'Segoe UI',Roboto,'Helvetica Neue',Arial,sans-serif" font-size="58" font-weight="700" letter-spacing="-1.2" fill="#FFFFFF">Mohamad Salman</text>
<rect x="72" y="134" width="72" height="4" rx="2" fill="url(#rule)"/>
<text x="72" y="174" font-family="ui-monospace,SFMono-Regular,Menlo,Consolas,'Liberation Mono',monospace" font-size="16" letter-spacing="1.4" fill="#C7D2FE" fill-opacity="0.92">University of Toronto &#183; Computer Engineering</text>
</svg>